# xmcd
#
# Track frame offsets:
#	182
#	16395
#	32957
#	56632
#	70217
#	82515
#	104072
#	118887
#	134405
#	154602
#	168745
#	178555
#	219012
#	242167
#
# Disc length: 3650
#
# Revision: 1
# Processed by: cddbd v1.5.1PL0 Copyright (c) Steve Scherf et al.
# Submitted via: CDex 1.40Release
# Normalized: r0:DSETVAR1,TDELIM( - )
#
DISCID=be0e400e
DTITLE=Various Artist - Alexis Corner Memorial Concert Volume 3
DYEAR=1996
DGENRE=Blues
TTITLE0=Blues Shouter - Three Hundred Pounds Of Joy
TTITLE1=Blues Shouter - Big Ten Inch Record
TTITLE2=Blues Shouter - Don't Play That Song
TTITLE3=Brian Knite and Toni Vines - Meet Me In the Bottom
TTITLE4=Brian Knite and Toni Vines - Hard Travellin'
TTITLE5=Norman Beaker Band - No Reason To Believe In Me
TTITLE6=Mike Sanchez - Be Careful
TTITLE7=Mike Sanchez - Reconsider Baby
TTITLE8=Mike Sanchez - Down the Road Apiece
TTITLE9=Dave Berry - Just A Little Bit
TTITLE10=Tony McPhee - I Can't Be Satisfied
TTITLE11=Herbie Goings - Hoochie Coochie Man
TTITLE12=Herbie Goings - Shuffle
TTITLE13=Herbie Goings - Woke Up This Morning
EXTD=YEAR: 1996 ID3G: 0
EXTT0=
EXTT1=
EXTT2=
EXTT3=
EXTT4=
EXTT5=
EXTT6=
EXTT7=
EXTT8=
EXTT9=
EXTT10=
EXTT11=
EXTT12=
EXTT13=
PLAYORDER=
